<svg id="Layer_1" data-name="Layer 1" xmlns="http://www.w3.org/2000/svg" viewBox="0 0 381.52 456.21"><defs><style>.cls-1{fill:#13948d;}</style></defs><title>but190-2</title><path class="cls-1" d="M72.09,259.76a6,6,0,0,1,2.09.38,6.41,6.41,0,0,1,2,.18l67.86.15a6,6,0,0,1,2.82-.7,14,14,0,0,0,14-14V34.69a14,14,0,0,0-14-14H72.09a14,14,0,0,0-14,14V245.76a14,14,0,0,0,14,14Z" transform="translate(-58.09 -20.69)"/><path class="cls-1" d="M205.59,229.79c-8.89,0-16.13,8.23-16.13,18.36v12.41l250.15.52V248.15c0-10.13-7.23-18.36-16.13-18.36Z" transform="translate(-58.09 -20.69)"/><path class="cls-1" d="M311,476.9l-.32-61.57q-6.22.53-12.54.53a6,6,0,1,1,0-12,138.3,138.3,0,0,0,16.65-1,6.32,6.32,0,0,1,1.83-.3h0l.29,0a138.45,138.45,0,0,0,78.82-39c24.87-24.55,39.16-56.5,40.65-90.53l-357.74-.74c-13,34.59-9.3,79.77,9.89,119.09,20.82,42.65,56.65,72.92,101,85.48Z" transform="translate(-58.09 -20.69)"/></svg>