<svg id="Capa_1" data-name="Capa 1" xmlns="http://www.w3.org/2000/svg" viewBox="0 0 330.17 512"><defs><style>.cls-1{fill:#13948d;}</style></defs><title>but210</title><path class="cls-1" d="M226,293.58a164.28,164.28,0,0,1-30-2.76L177.67,512H334.33L316.05,290.82a165.16,165.16,0,0,1-30,2.76Z" transform="translate(-90.91 0)"/><path class="cls-1" d="M90.91,124.5v5c0,74.48,60.6,135.07,135.07,135.07h60c74.47,0,135.07-60.59,135.07-135.07v-5h-95.5V95h-30V124.5H272V55a25,25,0,1,1,50,0V65h30V55a55,55,0,0,0-110,0V124.5H220V95H190V124.5Z" transform="translate(-90.91 0)"/></svg>